<svg width="14" height="9" viewBox="0 0 14 9" fill="none" xmlns="http://www.w3.org/2000/svg">
<path fill-rule="evenodd" clip-rule="evenodd" d="M4.58578 0.517332C4.63816 0.572486 4.67972 0.638007 4.70808 0.710142C4.73644 0.782276 4.75103 0.859608 4.75103 0.937707C4.75103 1.01581 4.73644 1.09314 4.70808 1.16527C4.67972 1.23741 4.63816 1.30293 4.58578 1.35808L1.6079 4.50021L4.58578 7.64233C4.63808 7.69754 4.67956 7.76307 4.70787 7.8352C4.73617 7.90733 4.75074 7.98464 4.75074 8.06271C4.75074 8.14078 4.73617 8.21808 4.70787 8.29021C4.67956 8.36234 4.63808 8.42788 4.58578 8.48308C4.53348 8.53829 4.47139 8.58208 4.40306 8.61195C4.33473 8.64183 4.26149 8.65721 4.18753 8.65721C4.11357 8.65721 4.04033 8.64183 3.972 8.61195C3.90367 8.58208 3.84158 8.53829 3.78928 8.48308L0.414279 4.92058C0.361895 4.86543 0.320335 4.79991 0.291977 4.72777C0.26362 4.65564 0.249023 4.57831 0.249023 4.50021C0.249023 4.42211 0.26362 4.34478 0.291977 4.27264C0.320335 4.20051 0.361895 4.13499 0.414279 4.07983L3.78928 0.517332C3.84153 0.462038 3.9036 0.418168 3.97194 0.388235C4.04028 0.358303 4.11354 0.342896 4.18753 0.342896C4.26152 0.342896 4.33478 0.358303 4.40312 0.388235C4.47146 0.418168 4.53353 0.462038 4.58578 0.517332Z" fill="#56597A" fill-opacity="0.6"/>
<path fill-rule="evenodd" clip-rule="evenodd" d="M0.8125 4.50024C0.8125 4.34277 0.871763 4.19175 0.977253 4.0804C1.08274 3.96905 1.22582 3.90649 1.375 3.90649H13.1875C13.3367 3.90649 13.4798 3.96905 13.5852 4.0804C13.6907 4.19175 13.75 4.34277 13.75 4.50024C13.75 4.65772 13.6907 4.80874 13.5852 4.92009C13.4798 5.03144 13.3367 5.09399 13.1875 5.09399H1.375C1.22582 5.09399 1.08274 5.03144 0.977253 4.92009C0.871763 4.80874 0.8125 4.65772 0.8125 4.50024Z" fill="#56597A" fill-opacity="0.6"/>
</svg>
